<svg xmlns="http://www.w3.org/2000/svg" width="192.33" height="160.733" viewBox="0 0 192.33 160.733">
  <g id="Group_7191" data-name="Group 7191" transform="translate(0.33 4)">
    <g id="ampledge">
      <path id="Path_14280" data-name="Path 14280" d="M111.206,152.363c-.295-.471,1.86-7.985,4.78-16.711s5.447-16.751,5.613-17.827c.223-1.528-2.968-4.4-14.381-12.921-8.063-6.03-14.567-11.4-14.448-11.94.136-.6,7.435-1.088,18.808-1.244l18.573-.264,5.789-17.868c3.8-11.668,6.254-17.868,7.147-17.868s3.35,6.211,7.161,17.868l5.818,17.868H174.98c15.655,0,18.915.235,18.915,1.392,0,.755-6.142,5.858-13.656,11.335s-14.165,10.569-14.781,11.3c-.862,1.048.136,5.28,4.389,18.574,3.037,9.463,5.251,17.644,4.927,18.163h0C174.773,152.872,111.492,152.83,111.206,152.363Zm3.341.442c0,.223,57.775.029,57.257-.447-1.2-1.088-26.009-19.132-27.635-20.1-.775-.46-6.477,3.127-15.429,9.7C120.935,147.693,114.547,152.58,114.547,152.805Z" transform="translate(-1.896 3.528)" fill="#fff"/>
      <path id="Path_14281" data-name="Path 14281" d="M-.33,70.531,75.366-4l62.281,59.8L125.829,74.491,75.067,28.575S61.97,40.426,21.551,80.1v76.632H-.33ZM90.878,96.486c-.118.538,6.388,5.908,14.448,11.94-8.063-6.03-14.674-11.4-14.694-11.94,0-.608,7.062-1.077,18.808-1.244l18.817-.264-18.574.264C98.313,95.4,91.014,95.892,90.878,96.486Z" fill="#ff0a4b"/>
    </g>
  </g>
</svg>
